<mxfile host="app.diagrams.net" modified="2021-10-18T07:53:41.862Z" agent="5.0 (Macintosh; Intel Mac OS X 10_15_7) AppleWebKit/537.36 (KHTML, like Gecko) Chrome/94.0.4606.81 Safari/537.36" etag="m84OErrjsF7O1mdf_m6T" version="15.5.2" type="github">
  <diagram id="R2lEEEUBdFMjLlhIrx00" name="Page-1">
    <mxGraphModel dx="1255" dy="811" grid="1" gridSize="10" guides="1" tooltips="1" connect="1" arrows="1" fold="1" page="1" pageScale="1" pageWidth="850" pageHeight="1100" math="0" shadow="0" extFonts="Permanent Marker^https://fonts.googleapis.com/css?family=Permanent+Marker">
      <root>
        <mxCell id="0" />
        <mxCell id="1" parent="0" />
        <mxCell id="fvr6tuX7fBwYvbkpEQ5w-1" value="crowd_biz" style="swimlane;html=1;fontStyle=1;align=center;verticalAlign=top;childLayout=stackLayout;horizontal=1;startSize=26;horizontalStack=0;resizeParent=1;resizeLast=0;collapsible=1;marginBottom=0;swimlaneFillColor=#ffffff;rounded=0;shadow=0;comic=0;labelBackgroundColor=none;strokeWidth=1;fillColor=none;fontFamily=Verdana;fontSize=12" vertex="1" parent="1">
          <mxGeometry x="130" y="140" width="216.5" height="216" as="geometry" />
        </mxCell>
        <mxCell id="fvr6tuX7fBwYvbkpEQ5w-2" value="+ id: bigint(20)" style="text;html=1;strokeColor=none;fillColor=none;align=left;verticalAlign=top;spacingLeft=4;spacingRight=4;whiteSpace=wrap;overflow=hidden;rotatable=0;points=[[0,0.5],[1,0.5]];portConstraint=eastwest;" vertex="1" parent="fvr6tuX7fBwYvbkpEQ5w-1">
          <mxGeometry y="26" width="216.5" height="26" as="geometry" />
        </mxCell>
        <mxCell id="fvr6tuX7fBwYvbkpEQ5w-3" value="+ biz_name: varchar(256)" style="text;html=1;strokeColor=none;fillColor=none;align=left;verticalAlign=top;spacingLeft=4;spacingRight=4;whiteSpace=wrap;overflow=hidden;rotatable=0;points=[[0,0.5],[1,0.5]];portConstraint=eastwest;" vertex="1" parent="fvr6tuX7fBwYvbkpEQ5w-1">
          <mxGeometry y="52" width="216.5" height="26" as="geometry" />
        </mxCell>
        <mxCell id="fvr6tuX7fBwYvbkpEQ5w-4" value="+ biz_desc: varchar(2048)" style="text;html=1;strokeColor=none;fillColor=none;align=left;verticalAlign=top;spacingLeft=4;spacingRight=4;whiteSpace=wrap;overflow=hidden;rotatable=0;points=[[0,0.5],[1,0.5]];portConstraint=eastwest;" vertex="1" parent="fvr6tuX7fBwYvbkpEQ5w-1">
          <mxGeometry y="78" width="216.5" height="26" as="geometry" />
        </mxCell>
        <mxCell id="fvr6tuX7fBwYvbkpEQ5w-5" value="" style="line;html=1;strokeWidth=1;fillColor=none;align=left;verticalAlign=middle;spacingTop=-1;spacingLeft=3;spacingRight=3;rotatable=0;labelPosition=right;points=[];portConstraint=eastwest;" vertex="1" parent="fvr6tuX7fBwYvbkpEQ5w-1">
          <mxGeometry y="104" width="216.5" height="8" as="geometry" />
        </mxCell>
        <mxCell id="fvr6tuX7fBwYvbkpEQ5w-6" value="+ gmt_create: timestamp" style="text;html=1;strokeColor=none;fillColor=none;align=left;verticalAlign=top;spacingLeft=4;spacingRight=4;whiteSpace=wrap;overflow=hidden;rotatable=0;points=[[0,0.5],[1,0.5]];portConstraint=eastwest;" vertex="1" parent="fvr6tuX7fBwYvbkpEQ5w-1">
          <mxGeometry y="112" width="216.5" height="26" as="geometry" />
        </mxCell>
        <mxCell id="fvr6tuX7fBwYvbkpEQ5w-8" value="+ gmt_modified: timestamp" style="text;html=1;strokeColor=none;fillColor=none;align=left;verticalAlign=top;spacingLeft=4;spacingRight=4;whiteSpace=wrap;overflow=hidden;rotatable=0;points=[[0,0.5],[1,0.5]];portConstraint=eastwest;" vertex="1" parent="fvr6tuX7fBwYvbkpEQ5w-1">
          <mxGeometry y="138" width="216.5" height="26" as="geometry" />
        </mxCell>
        <mxCell id="fvr6tuX7fBwYvbkpEQ5w-9" value="+ creator: varchar(256)" style="text;html=1;strokeColor=none;fillColor=none;align=left;verticalAlign=top;spacingLeft=4;spacingRight=4;whiteSpace=wrap;overflow=hidden;rotatable=0;points=[[0,0.5],[1,0.5]];portConstraint=eastwest;" vertex="1" parent="fvr6tuX7fBwYvbkpEQ5w-1">
          <mxGeometry y="164" width="216.5" height="26" as="geometry" />
        </mxCell>
        <mxCell id="fvr6tuX7fBwYvbkpEQ5w-10" value="+ modifier: varchar(256)" style="text;html=1;strokeColor=none;fillColor=none;align=left;verticalAlign=top;spacingLeft=4;spacingRight=4;whiteSpace=wrap;overflow=hidden;rotatable=0;points=[[0,0.5],[1,0.5]];portConstraint=eastwest;" vertex="1" parent="fvr6tuX7fBwYvbkpEQ5w-1">
          <mxGeometry y="190" width="216.5" height="26" as="geometry" />
        </mxCell>
        <mxCell id="fvr6tuX7fBwYvbkpEQ5w-11" style="edgeStyle=orthogonalEdgeStyle;rounded=0;html=1;labelBackgroundColor=none;startArrow=none;startFill=0;startSize=8;endArrow=none;endFill=0;endSize=16;fontFamily=Verdana;fontSize=12;exitX=0;exitY=0.5;exitDx=0;exitDy=0;entryX=1;entryY=0.5;entryDx=0;entryDy=0;" edge="1" parent="1" source="fvr6tuX7fBwYvbkpEQ5w-15" target="fvr6tuX7fBwYvbkpEQ5w-2">
          <mxGeometry relative="1" as="geometry">
            <Array as="points">
              <mxPoint x="490" y="179" />
            </Array>
            <mxPoint x="580" y="210" as="sourcePoint" />
            <mxPoint x="370" y="220" as="targetPoint" />
          </mxGeometry>
        </mxCell>
        <mxCell id="fvr6tuX7fBwYvbkpEQ5w-12" value="&lt;b&gt;&lt;font style=&quot;font-size: 14px&quot;&gt;1&lt;/font&gt;&lt;/b&gt;" style="text;html=1;resizable=0;points=[];align=center;verticalAlign=middle;labelBackgroundColor=#ffffff;fontSize=12;fontFamily=Verdana;fontColor=#FF3333;" vertex="1" connectable="0" parent="fvr6tuX7fBwYvbkpEQ5w-11">
          <mxGeometry x="0.8917" y="-1" relative="1" as="geometry">
            <mxPoint x="5" y="-2" as="offset" />
          </mxGeometry>
        </mxCell>
        <mxCell id="fvr6tuX7fBwYvbkpEQ5w-13" value="crowd_biz_type_rel" style="swimlane;html=1;fontStyle=1;align=center;verticalAlign=top;childLayout=stackLayout;horizontal=1;startSize=26;horizontalStack=0;resizeParent=1;resizeLast=0;collapsible=1;marginBottom=0;swimlaneFillColor=#ffffff;rounded=0;shadow=0;comic=0;labelBackgroundColor=none;strokeWidth=1;fillColor=none;fontFamily=Verdana;fontSize=12" vertex="1" parent="1">
          <mxGeometry x="460" y="112" width="216.5" height="104" as="geometry" />
        </mxCell>
        <mxCell id="fvr6tuX7fBwYvbkpEQ5w-14" value="+ id: bigint(20)" style="text;html=1;strokeColor=none;fillColor=none;align=left;verticalAlign=top;spacingLeft=4;spacingRight=4;whiteSpace=wrap;overflow=hidden;rotatable=0;points=[[0,0.5],[1,0.5]];portConstraint=eastwest;" vertex="1" parent="fvr6tuX7fBwYvbkpEQ5w-13">
          <mxGeometry y="26" width="216.5" height="26" as="geometry" />
        </mxCell>
        <mxCell id="fvr6tuX7fBwYvbkpEQ5w-15" value="+ biz_id: bigint(20)" style="text;html=1;strokeColor=none;fillColor=none;align=left;verticalAlign=top;spacingLeft=4;spacingRight=4;whiteSpace=wrap;overflow=hidden;rotatable=0;points=[[0,0.5],[1,0.5]];portConstraint=eastwest;" vertex="1" parent="fvr6tuX7fBwYvbkpEQ5w-13">
          <mxGeometry y="52" width="216.5" height="26" as="geometry" />
        </mxCell>
        <mxCell id="fvr6tuX7fBwYvbkpEQ5w-16" value="+ type_id: bigint(20)" style="text;html=1;strokeColor=none;fillColor=none;align=left;verticalAlign=top;spacingLeft=4;spacingRight=4;whiteSpace=wrap;overflow=hidden;rotatable=0;points=[[0,0.5],[1,0.5]];portConstraint=eastwest;" vertex="1" parent="fvr6tuX7fBwYvbkpEQ5w-13">
          <mxGeometry y="78" width="216.5" height="26" as="geometry" />
        </mxCell>
        <mxCell id="fvr6tuX7fBwYvbkpEQ5w-22" value="user_type" style="swimlane;html=1;fontStyle=1;align=center;verticalAlign=top;childLayout=stackLayout;horizontal=1;startSize=26;horizontalStack=0;resizeParent=1;resizeLast=0;collapsible=1;marginBottom=0;swimlaneFillColor=#ffffff;rounded=0;shadow=0;comic=0;labelBackgroundColor=none;strokeWidth=1;fillColor=none;fontFamily=Verdana;fontSize=12" vertex="1" parent="1">
          <mxGeometry x="770" y="160" width="216.5" height="110" as="geometry" />
        </mxCell>
        <mxCell id="fvr6tuX7fBwYvbkpEQ5w-23" value="+ type_id: bigint(20)" style="text;html=1;strokeColor=none;fillColor=none;align=left;verticalAlign=top;spacingLeft=4;spacingRight=4;whiteSpace=wrap;overflow=hidden;rotatable=0;points=[[0,0.5],[1,0.5]];portConstraint=eastwest;" vertex="1" parent="fvr6tuX7fBwYvbkpEQ5w-22">
          <mxGeometry y="26" width="216.5" height="26" as="geometry" />
        </mxCell>
        <mxCell id="fvr6tuX7fBwYvbkpEQ5w-24" value="+ type_name: varchar(256)" style="text;html=1;strokeColor=none;fillColor=none;align=left;verticalAlign=top;spacingLeft=4;spacingRight=4;whiteSpace=wrap;overflow=hidden;rotatable=0;points=[[0,0.5],[1,0.5]];portConstraint=eastwest;" vertex="1" parent="fvr6tuX7fBwYvbkpEQ5w-22">
          <mxGeometry y="52" width="216.5" height="26" as="geometry" />
        </mxCell>
        <mxCell id="fvr6tuX7fBwYvbkpEQ5w-25" value="+ type_catalog: int(11)" style="text;html=1;strokeColor=none;fillColor=none;align=left;verticalAlign=top;spacingLeft=4;spacingRight=4;whiteSpace=wrap;overflow=hidden;rotatable=0;points=[[0,0.5],[1,0.5]];portConstraint=eastwest;" vertex="1" parent="fvr6tuX7fBwYvbkpEQ5w-22">
          <mxGeometry y="78" width="216.5" height="26" as="geometry" />
        </mxCell>
        <mxCell id="fvr6tuX7fBwYvbkpEQ5w-36" style="edgeStyle=orthogonalEdgeStyle;rounded=0;html=1;labelBackgroundColor=none;startArrow=none;startFill=0;startSize=8;endArrow=none;endFill=0;endSize=16;fontFamily=Verdana;fontSize=12;exitX=0;exitY=0.5;exitDx=0;exitDy=0;entryX=1;entryY=0.5;entryDx=0;entryDy=0;" edge="1" parent="1" source="fvr6tuX7fBwYvbkpEQ5w-23" target="fvr6tuX7fBwYvbkpEQ5w-16">
          <mxGeometry relative="1" as="geometry">
            <Array as="points">
              <mxPoint x="770" y="203" />
            </Array>
            <mxPoint x="803.5" y="240" as="sourcePoint" />
            <mxPoint x="660" y="242" as="targetPoint" />
          </mxGeometry>
        </mxCell>
        <mxCell id="fvr6tuX7fBwYvbkpEQ5w-37" value="&lt;b&gt;&lt;font style=&quot;font-size: 14px&quot;&gt;n&lt;/font&gt;&lt;/b&gt;" style="text;html=1;resizable=0;points=[];align=center;verticalAlign=middle;labelBackgroundColor=#ffffff;fontSize=12;fontFamily=Verdana;fontColor=#FF3333;" vertex="1" connectable="0" parent="fvr6tuX7fBwYvbkpEQ5w-36">
          <mxGeometry x="0.8917" y="-1" relative="1" as="geometry">
            <mxPoint x="63" y="-3" as="offset" />
          </mxGeometry>
        </mxCell>
      </root>
    </mxGraphModel>
  </diagram>
</mxfile>
